# xmcd
#
# Track frame offsets:
# 150
# 17991
# 37981
# 63637
# 84507
# 96372
# 115425
# 134792
# 156719
# 175354
#
# Disc length: 2448 seconds
#
# Revision: 0
# Processed by: cddbd v1.5.2PL0 Copyright (c) Steve Scherf et al.
# Submitted via: Audion 3.0.2 (http://www.panic.com/audion/)
#
DISCID=95098e0a
DTITLE=Mylène Farmer - Cendre de Lune (vinyle)
DYEAR=1900
DGENRE=
TTITLE0=Libertine
TTITLE1=Au bout de la nuit
TTITLE2=Vieux bouc
TTITLE3=Tristana
TTITLE4=Chloé
TTITLE5=Maman a tort
TTITLE6=We'll never die
TTITLE7=Greta
TTITLE8=Plus grandir
TTITLE9=Cendres de lune
EXTD=
EXTT0=
EXTT1=
EXTT2=
EXTT3=
EXTT4=
EXTT5=
EXTT6=
EXTT7=
EXTT8=
EXTT9=
PLAYORDER=
